<?xml version="1.0" encoding="utf-8"?>
<svg width="300px" height="300px" viewBox="0 0 300 300" version="1.1" xmlns:xlink="http://www.w3.org/1999/xlink" xmlns="http://www.w3.org/2000/svg">
  <defs>
    <rect width="300" height="300" id="artboard_1" />
    <clipPath id="clip_1">
      <use xlink:href="#artboard_1" clip-rule="evenodd" />
    </clipPath>
  </defs>
  <g id="Artboard" clip-path="url(#clip_1)">
    <use xlink:href="#artboard_1" stroke="none" fill="#FFFFFF" />
    <path d="M0 0L300 0L300 300L0 300L0 0Z" id="Rectangle" fill="#FFFFFF" fill-rule="evenodd" stroke="#000000" stroke-width="4" />
    <g id="Album-Artwork-Not-Available" transform="translate(59 118)">
      <g fill="#000000" stroke="none" id="Album-Artwork">
        <path d="M7.65625 5.98535L-0.0410156 26.0283L2.77539 26.0283L4.97656 19.958L13.3574 19.958L15.6953 26.0283L18.7168 26.0283L10.5137 5.98535L7.65625 5.98535ZM20.4668 5.98535L20.4668 26.0283L22.9277 26.0283L22.9277 5.98535L20.4668 5.98535ZM29.0117 26.0283L26.7285 26.0283L26.7285 5.98535L29.1895 5.98535L29.1895 13.1357Q30.748 11.1807 33.168 11.1807Q34.5078 11.1807 35.7041 11.7207Q36.9004 12.2607 37.6729 13.2383Q38.4453 14.2158 38.8828 15.5967Q39.3203 16.9775 39.3203 18.5498Q39.3203 22.2822 37.4746 24.3193Q35.6289 26.3564 33.0449 26.3564Q30.4746 26.3564 29.0117 24.21L29.0117 26.0283ZM94.8008 5.98535L87.1035 26.0283L89.9199 26.0283L92.1211 19.958L100.502 19.958L102.84 26.0283L105.861 26.0283L97.6582 5.98535L94.8008 5.98535ZM169.9 5.98535L169.9 26.0283L172.361 26.0283L172.361 20.2725L174.098 18.6045L178.896 26.0283L181.932 26.0283L175.82 16.8955L181.371 11.5088L178.186 11.5088L172.361 17.415L172.361 5.98535L169.9 5.98535ZM122.719 26.001L122.363 23.8271Q121.693 23.9229 121.283 23.9229Q120.736 23.9229 120.442 23.7451Q120.148 23.5674 120.019 23.2666Q119.889 22.9658 119.889 21.9131L119.889 13.4229L122.363 13.4229L122.363 11.5088L119.889 11.5088L119.889 6.43652L117.441 7.91309L117.441 11.5088L115.637 11.5088L115.637 13.4229L117.441 13.4229L117.441 21.7764Q117.441 23.9912 117.742 24.6816Q118.043 25.3721 118.781 25.7959Q119.52 26.2197 120.859 26.2197Q121.68 26.2197 122.719 26.001ZM12.5371 17.7979L5.74219 17.7979L7.94336 11.9189Q8.64063 10.0186 9.02344 8.09082Q9.48828 9.71778 10.4453 12.2471L12.5371 17.7979ZM99.6816 17.7979L92.8867 17.7979L95.0879 11.9189Q95.7852 10.0186 96.168 8.09082Q96.6328 9.71778 97.5898 12.2471L99.6816 17.7979ZM57.8867 26.0283L57.8867 11.5088L60.0879 11.5088L60.0879 13.5459Q60.7715 12.4795 61.9063 11.8301Q63.041 11.1807 64.4902 11.1807Q66.1035 11.1807 67.1357 11.8506Q68.168 12.5205 68.5918 13.7236Q70.3145 11.1807 73.0762 11.1807Q75.2363 11.1807 76.3984 12.377Q77.5605 13.5732 77.5605 16.0615L77.5605 26.0283L75.1133 26.0283L75.1133 16.8818Q75.1133 15.4053 74.874 14.7559Q74.6348 14.1064 74.0059 13.71Q73.377 13.3135 72.5293 13.3135Q70.998 13.3135 69.9863 14.332Q68.9746 15.3506 68.9746 17.5928L68.9746 26.0283L66.5137 26.0283L66.5137 16.5947Q66.5137 14.9541 65.9121 14.1338Q65.3105 13.3135 63.9434 13.3135Q62.9043 13.3135 62.0225 13.8604Q61.1406 14.4072 60.7441 15.46Q60.3477 16.5127 60.3477 18.4951L60.3477 26.0283L57.8867 26.0283ZM107.639 26.0283L107.639 11.5088L109.854 11.5088L109.854 13.71Q110.701 12.165 111.419 11.6729Q112.137 11.1807 112.998 11.1807Q114.242 11.1807 115.527 11.9736L114.68 14.2568Q113.777 13.7236 112.875 13.7236Q112.068 13.7236 111.426 14.209Q110.783 14.6943 110.51 15.5557Q110.1 16.8682 110.1 18.4268L110.1 26.0283L107.639 26.0283ZM146.316 12.7939Q144.074 14.7354 144.074 18.7686Q144.074 22.4463 145.954 24.4014Q147.834 26.3564 150.883 26.3564Q152.783 26.3564 154.39 25.4678Q155.996 24.5791 156.837 22.9727Q157.678 21.3662 157.678 18.5635Q157.678 15.1045 155.777 13.1426Q153.877 11.1807 150.883 11.1807Q148.189 11.1807 146.316 12.7939ZM160.535 11.5088L162.75 11.5088L162.75 13.71Q163.598 12.165 164.315 11.6729Q165.033 11.1807 165.895 11.1807Q167.139 11.1807 168.424 11.9736L167.576 14.2568Q166.674 13.7236 165.771 13.7236Q164.965 13.7236 164.322 14.209Q163.68 14.6943 163.406 15.5557Q162.996 16.8682 162.996 18.4268L162.996 26.0283L160.535 26.0283L160.535 11.5088ZM51.8301 23.8955L51.8301 26.0283L54.0313 26.0283L54.0313 11.5088L51.5703 11.5088L51.5703 19.2881Q51.5703 21.1475 51.167 22.125Q50.7637 23.1025 49.793 23.6699Q48.8223 24.2373 47.7148 24.2373Q46.6074 24.2373 45.8555 23.6836Q45.1035 23.1299 44.8711 22.1592Q44.7207 21.4893 44.7207 19.5615L44.7207 11.5088L42.2598 11.5088L42.2598 20.5049Q42.2598 22.0771 42.4102 22.8018Q42.6289 23.8818 43.1689 24.627Q43.709 25.3721 44.8232 25.8643Q45.9375 26.3564 47.2227 26.3564Q50.1348 26.3564 51.8301 23.8955ZM127.449 26.0283L123.006 11.5088L125.549 11.5088L127.859 19.8896L128.721 23.0068Q128.775 22.7744 129.473 20.0127L131.783 11.5088L134.313 11.5088L136.486 19.9307L137.211 22.7061L138.045 19.9033L140.533 11.5088L142.926 11.5088L138.387 26.0283L135.83 26.0283L133.52 17.333L132.959 14.8584L130.02 26.0283L127.449 26.0283ZM28.9844 18.6592Q28.9844 21.2705 29.6953 22.4326Q30.8574 24.333 32.8398 24.333Q34.4531 24.333 35.6289 22.9316Q36.8047 21.5303 36.8047 18.7549Q36.8047 15.9111 35.6768 14.5576Q34.5488 13.2041 32.9492 13.2041Q31.3359 13.2041 30.1602 14.6055Q28.9844 16.0068 28.9844 18.6592ZM147.82 22.9453Q146.604 21.5576 146.604 18.7686Q146.604 15.9795 147.82 14.5986Q149.037 13.2178 150.883 13.2178Q152.701 13.2178 153.925 14.6055Q155.148 15.9932 155.148 18.6865Q155.148 21.5439 153.932 22.9385Q152.715 24.333 150.883 24.333Q149.037 24.333 147.82 22.9453Z" />
      </g>
      <g fill="#000000" stroke="none" id="Not-Available">
        <path d="M10.6641 37.9854L10.6641 58.0283L13.207 58.0283L13.207 42.2783L23.7344 58.0283L26.4551 58.0283L26.4551 37.9854L23.9121 37.9854L23.9121 53.7217L13.3848 37.9854L10.6641 37.9854ZM67.5391 37.9854L59.8418 58.0283L62.6582 58.0283L64.8594 51.958L73.2402 51.958L75.5781 58.0283L78.5996 58.0283L70.3965 37.9854L67.5391 37.9854ZM109.99 40.8154L109.99 37.9854L112.451 37.9854L112.451 40.8154L109.99 40.8154ZM116.143 37.9854L116.143 58.0283L118.604 58.0283L118.604 37.9854L116.143 37.9854ZM137.977 58.0283L140.26 58.0283L140.26 56.21Q141.723 58.3564 144.293 58.3564Q146.877 58.3564 148.723 56.3193Q150.568 54.2822 150.568 50.5498Q150.568 48.9775 150.131 47.5967Q149.693 46.2158 148.921 45.2383Q148.148 44.2607 146.952 43.7207Q145.756 43.1807 144.416 43.1807Q141.996 43.1807 140.438 45.1357L140.438 37.9854L137.977 37.9854L137.977 58.0283ZM153.508 58.0283L153.508 37.9854L155.969 37.9854L155.969 58.0283L153.508 58.0283ZM51.543 55.8271L51.8984 58.001Q50.8594 58.2197 50.0391 58.2197Q48.6992 58.2197 47.9609 57.7959Q47.2227 57.3721 46.9219 56.6816Q46.6211 55.9912 46.6211 53.7764L46.6211 45.4229L44.8164 45.4229L44.8164 43.5088L46.6211 43.5088L46.6211 39.9131L49.0684 38.4365L49.0684 43.5088L51.543 43.5088L51.543 45.4229L49.0684 45.4229L49.0684 53.9131Q49.0684 54.9658 49.1982 55.2666Q49.3281 55.5674 49.6221 55.7451Q49.916 55.9229 50.4629 55.9229Q50.873 55.9229 51.543 55.8271ZM72.4199 49.7979L65.625 49.7979L67.8262 43.9189Q68.5234 42.0186 68.9063 40.0908Q69.3711 41.7178 70.3281 44.2471L72.4199 49.7979ZM31.9238 44.7939Q29.6816 46.7354 29.6816 50.7686Q29.6816 54.4463 31.5615 56.4014Q33.4414 58.3564 36.4902 58.3564Q38.3906 58.3564 39.9971 57.4678Q41.6035 56.5791 42.4443 54.9727Q43.2852 53.3662 43.2852 50.5635Q43.2852 47.1045 41.3848 45.1426Q39.4844 43.1807 36.4902 43.1807Q33.7969 43.1807 31.9238 44.7939ZM101.247 57.8779Q102.512 57.3994 103.879 56.2373Q103.988 57.2627 104.371 58.0283L106.941 58.0283Q106.477 57.1943 106.319 56.2852Q106.162 55.376 106.162 51.9443L106.162 48.6631Q106.162 47.0225 106.039 46.3936Q105.82 45.3818 105.273 44.7188Q104.727 44.0557 103.564 43.6182Q102.402 43.1807 100.543 43.1807Q98.6699 43.1807 97.248 43.6934Q95.8262 44.2061 95.0742 45.1563Q94.3223 46.1064 93.9941 47.6514L96.4004 47.9795Q96.7969 46.4346 97.624 45.8262Q98.4512 45.2178 100.188 45.2178Q102.047 45.2178 102.99 46.0518Q103.688 46.667 103.688 48.1709Q103.688 48.3076 103.674 48.8135Q102.266 49.3057 99.2852 49.6611Q97.8223 49.8389 97.0977 50.0303Q96.1133 50.3037 95.3271 50.8369Q94.541 51.3701 94.0557 52.252Q93.5703 53.1338 93.5703 54.2002Q93.5703 56.0186 94.8555 57.1875Q96.1406 58.3564 98.5332 58.3564Q99.9824 58.3564 101.247 57.8779ZM131.893 56.2373Q130.525 57.3994 129.261 57.8779Q127.996 58.3564 126.547 58.3564Q124.154 58.3564 122.869 57.1875Q121.584 56.0186 121.584 54.2002Q121.584 53.1338 122.069 52.252Q122.555 51.3701 123.341 50.8369Q124.127 50.3037 125.111 50.0303Q125.836 49.8389 127.299 49.6611Q130.279 49.3057 131.688 48.8135Q131.701 48.3076 131.701 48.1709Q131.701 46.667 131.004 46.0518Q130.061 45.2178 128.201 45.2178Q126.465 45.2178 125.638 45.8262Q124.811 46.4346 124.414 47.9795L122.008 47.6514Q122.336 46.1064 123.088 45.1563Q123.84 44.2061 125.262 43.6934Q126.684 43.1807 128.557 43.1807Q130.416 43.1807 131.578 43.6182Q132.74 44.0557 133.287 44.7188Q133.834 45.3818 134.053 46.3936Q134.176 47.0225 134.176 48.6631L134.176 51.9443Q134.176 55.376 134.333 56.2852Q134.49 57.1943 134.955 58.0283L132.385 58.0283Q132.002 57.2627 131.893 56.2373ZM172.266 53.667L169.723 53.3525Q169.162 54.9111 168.205 55.6221Q167.248 56.333 165.895 56.333Q164.076 56.333 162.859 55.0615Q161.643 53.79 161.506 51.3975L172.334 51.3975Q172.348 50.96 172.348 50.7412Q172.348 47.1455 170.502 45.1631Q168.656 43.1807 165.744 43.1807Q162.736 43.1807 160.85 45.2041Q158.963 47.2275 158.963 50.8916Q158.963 54.4326 160.829 56.3945Q162.695 58.3564 165.881 58.3564Q168.41 58.3564 170.037 57.126Q171.664 55.8955 172.266 53.667ZM78.9141 43.5088L81.5117 43.5088L84.6289 52.2041Q85.1348 53.6123 85.5586 55.1299Q85.8867 53.9814 86.4746 52.3682L89.7012 43.5088L92.2305 43.5088L86.7344 58.0283L84.4375 58.0283L78.9141 43.5088ZM109.99 43.5088L112.451 43.5088L112.451 58.0283L109.99 58.0283L109.99 43.5088ZM140.943 54.4326Q140.232 53.2705 140.232 50.6592Q140.232 48.0068 141.408 46.6055Q142.584 45.2041 144.197 45.2041Q145.797 45.2041 146.925 46.5576Q148.053 47.9111 148.053 50.7549Q148.053 53.5303 146.877 54.9316Q145.701 56.333 144.088 56.333Q142.105 56.333 140.943 54.4326ZM169.75 49.374L161.643 49.374Q161.766 47.4736 162.921 46.3389Q164.076 45.2041 165.771 45.2041Q167.645 45.2041 168.82 46.626Q169.586 47.542 169.75 49.374ZM33.4277 54.9453Q32.2109 53.5576 32.2109 50.7686Q32.2109 47.9795 33.4277 46.5986Q34.6445 45.2178 36.4902 45.2178Q38.3086 45.2178 39.5322 46.6055Q40.7559 47.9932 40.7559 50.6865Q40.7559 53.5439 39.5391 54.9385Q38.3223 56.333 36.4902 56.333Q34.6445 56.333 33.4277 54.9453ZM99.6543 51.6709Q102.334 51.2881 103.674 50.7412L103.674 51.6436Q103.674 53.2705 103.277 54.1045Q102.758 55.1846 101.65 55.8066Q100.543 56.4287 99.1211 56.4287Q97.6855 56.4287 96.9404 55.7725Q96.1953 55.1162 96.1953 54.1318Q96.1953 53.4893 96.5371 52.9629Q96.8789 52.4365 97.5078 52.1631Q98.1367 51.8896 99.6543 51.6709ZM131.688 50.7412Q130.348 51.2881 127.668 51.6709Q126.15 51.8896 125.521 52.1631Q124.893 52.4365 124.551 52.9629Q124.209 53.4893 124.209 54.1318Q124.209 55.1162 124.954 55.7725Q125.699 56.4287 127.135 56.4287Q128.557 56.4287 129.664 55.8066Q130.771 55.1846 131.291 54.1045Q131.688 53.2705 131.688 51.6436L131.688 50.7412Z" />
      </g>
    </g>
  </g>
</svg>